<mxfile host="app.diagrams.net" agent="Mozilla/5.0 (Windows NT 10.0; Win64; x64) AppleWebKit/537.36 (KHTML, like Gecko) Chrome/135.0.0.0 Safari/537.36" scale="1" border="0" version="26.2.12">
  <diagram name="Page-1" id="64c3da0e-402f-94eb-ee01-a36477274f13">
    <mxGraphModel dx="1044" dy="562" grid="1" gridSize="10" guides="1" tooltips="1" connect="1" arrows="1" fold="1" page="1" pageScale="1" pageWidth="1169" pageHeight="826" background="none" math="0" shadow="0">
      <root>
        <mxCell id="0" />
        <mxCell id="1" parent="0" />
        <mxCell id="2" value="ZeroBite" style="whiteSpace=wrap;rounded=1;shadow=1;fillColor=#d0cee2;strokeColor=#56517e;fontStyle=1;fontSize=24" parent="1" vertex="1">
          <mxGeometry x="1000" y="40" width="340" height="60" as="geometry" />
        </mxCell>
        <mxCell id="3" value="Ön Hazırlık Aşaması" style="whiteSpace=wrap;rounded=1;fillColor=#76608a;strokeColor=#432D57;shadow=1;fontColor=#ffffff;fontStyle=1;fontSize=14" parent="1" vertex="1">
          <mxGeometry x="150" y="240" width="160" height="60" as="geometry" />
        </mxCell>
        <mxCell id="105" value="" style="edgeStyle=elbowEdgeStyle;elbow=horizontal;rounded=0;fontColor=#000000;endArrow=none;endFill=0;strokeWidth=8;strokeColor=#23445D;" parent="1" target="23" edge="1">
          <mxGeometry width="100" height="100" relative="1" as="geometry">
            <mxPoint x="230" y="360" as="sourcePoint" />
            <mxPoint x="110" y="380" as="targetPoint" />
            <Array as="points">
              <mxPoint x="230" y="370" />
            </Array>
          </mxGeometry>
        </mxCell>
        <mxCell id="106" value="" style="edgeStyle=elbowEdgeStyle;elbow=horizontal;rounded=0;fontColor=#000000;endArrow=none;endFill=0;strokeWidth=8;strokeColor=#23445D;" parent="1" target="24" edge="1">
          <mxGeometry width="100" height="100" relative="1" as="geometry">
            <mxPoint x="230" y="360" as="sourcePoint" />
            <mxPoint x="80" y="440" as="targetPoint" />
            <Array as="points">
              <mxPoint x="230" y="390" />
              <mxPoint x="50" y="400" />
            </Array>
          </mxGeometry>
        </mxCell>
        <mxCell id="109" value="" style="edgeStyle=elbowEdgeStyle;elbow=horizontal;rounded=0;fontColor=#000000;endArrow=none;endFill=0;strokeWidth=8;strokeColor=#23445D;" parent="1" target="26" edge="1">
          <mxGeometry width="100" height="100" relative="1" as="geometry">
            <mxPoint x="230" y="360" as="sourcePoint" />
            <mxPoint x="100" y="460" as="targetPoint" />
            <Array as="points">
              <mxPoint x="230" y="420" />
              <mxPoint x="50" y="410" />
            </Array>
          </mxGeometry>
        </mxCell>
        <mxCell id="110" value="" style="edgeStyle=elbowEdgeStyle;elbow=horizontal;rounded=0;fontColor=#000000;endArrow=none;endFill=0;strokeWidth=8;strokeColor=#23445D;" parent="1" source="23" target="25" edge="1">
          <mxGeometry width="100" height="100" relative="1" as="geometry">
            <mxPoint x="110" y="370" as="sourcePoint" />
            <mxPoint x="110" y="470" as="targetPoint" />
            <Array as="points">
              <mxPoint x="230" y="420" />
              <mxPoint x="240" y="460" />
            </Array>
          </mxGeometry>
        </mxCell>
        <mxCell id="229" value="" style="edgeStyle=elbowEdgeStyle;elbow=vertical;rounded=0;fontColor=#000000;endArrow=none;endFill=0;strokeWidth=8;strokeColor=#23445D;" parent="1" source="2" target="3" edge="1">
          <mxGeometry width="100" height="100" relative="1" as="geometry">
            <mxPoint x="540" y="140" as="sourcePoint" />
            <mxPoint x="640" y="40" as="targetPoint" />
            <Array as="points">
              <mxPoint x="610" y="180" />
            </Array>
          </mxGeometry>
        </mxCell>
        <mxCell id="230" value="" style="edgeStyle=elbowEdgeStyle;elbow=vertical;rounded=0;fontColor=#000000;endArrow=none;endFill=0;strokeWidth=8;strokeColor=#23445D;" parent="1" source="2" edge="1">
          <mxGeometry width="100" height="100" relative="1" as="geometry">
            <mxPoint x="550" y="150" as="sourcePoint" />
            <mxPoint x="640" y="239.99999999999977" as="targetPoint" />
            <Array as="points">
              <mxPoint x="790" y="180" />
              <mxPoint x="640" y="180" />
            </Array>
          </mxGeometry>
        </mxCell>
        <mxCell id="231" value="" style="edgeStyle=elbowEdgeStyle;elbow=vertical;rounded=0;fontColor=#000000;endArrow=none;endFill=0;strokeWidth=8;strokeColor=#23445D;entryX=0.46;entryY=0.067;entryDx=0;entryDy=0;entryPerimeter=0;" parent="1" edge="1">
          <mxGeometry width="100" height="100" relative="1" as="geometry">
            <mxPoint x="1170" y="130" as="sourcePoint" />
            <mxPoint x="973.5999999999999" y="254.01999999999998" as="targetPoint" />
            <Array as="points">
              <mxPoint x="1070" y="180" />
            </Array>
          </mxGeometry>
        </mxCell>
        <mxCell id="232" value="" style="edgeStyle=elbowEdgeStyle;elbow=vertical;rounded=0;fontColor=#000000;endArrow=none;endFill=0;strokeWidth=8;strokeColor=#23445D;" parent="1" source="2" edge="1">
          <mxGeometry width="100" height="100" relative="1" as="geometry">
            <mxPoint x="570" y="170" as="sourcePoint" />
            <mxPoint x="1340" y="239.99999999999977" as="targetPoint" />
            <Array as="points">
              <mxPoint x="1170" y="180" />
            </Array>
          </mxGeometry>
        </mxCell>
        <mxCell id="233" value="" style="edgeStyle=elbowEdgeStyle;elbow=vertical;rounded=0;fontColor=#000000;endArrow=none;endFill=0;strokeWidth=8;strokeColor=#23445D;entryX=0.5;entryY=0;entryDx=0;entryDy=0;" parent="1" source="2" target="stkKRyprHIGqT4UZeSZB-289" edge="1">
          <mxGeometry width="100" height="100" relative="1" as="geometry">
            <mxPoint x="580" y="180" as="sourcePoint" />
            <mxPoint x="1710" y="229.99999999999977" as="targetPoint" />
            <Array as="points">
              <mxPoint x="1170" y="180" />
            </Array>
          </mxGeometry>
        </mxCell>
        <mxCell id="234" value="" style="edgeStyle=elbowEdgeStyle;elbow=vertical;rounded=0;fontColor=#000000;endArrow=none;endFill=0;strokeWidth=8;strokeColor=#23445D;entryX=0.5;entryY=0;entryDx=0;entryDy=0;" parent="1" target="stkKRyprHIGqT4UZeSZB-298" edge="1">
          <mxGeometry width="100" height="100" relative="1" as="geometry">
            <mxPoint x="1169" y="100" as="sourcePoint" />
            <mxPoint x="1959" y="180" as="targetPoint" />
            <Array as="points">
              <mxPoint x="1169" y="180" />
            </Array>
          </mxGeometry>
        </mxCell>
        <mxCell id="stkKRyprHIGqT4UZeSZB-235" value="" style="edgeStyle=elbowEdgeStyle;elbow=horizontal;rounded=0;fontColor=#000000;endArrow=none;endFill=0;strokeWidth=8;strokeColor=#23445D;" parent="1" target="23" edge="1">
          <mxGeometry width="100" height="100" relative="1" as="geometry">
            <mxPoint x="230.66666666666674" y="360" as="sourcePoint" />
            <mxPoint x="190" y="590" as="targetPoint" />
            <Array as="points" />
          </mxGeometry>
        </mxCell>
        <mxCell id="stkKRyprHIGqT4UZeSZB-236" value="" style="edgeStyle=elbowEdgeStyle;elbow=horizontal;rounded=0;fontColor=#000000;endArrow=none;endFill=0;strokeWidth=8;strokeColor=#23445D;" parent="1" source="25" edge="1">
          <mxGeometry width="100" height="100" relative="1" as="geometry">
            <mxPoint x="229.33666666666673" y="300" as="sourcePoint" />
            <mxPoint x="229.67" y="570" as="targetPoint" />
            <Array as="points">
              <mxPoint x="229.67" y="320" />
              <mxPoint x="229.67" y="240" />
            </Array>
          </mxGeometry>
        </mxCell>
        <mxCell id="26" value="Proje Beyanı Hazırlama" style="whiteSpace=wrap;rounded=1;fillColor=#999999;strokeColor=none;shadow=1;fontColor=#FFFFFF;fontStyle=0" parent="1" vertex="1">
          <mxGeometry x="160" y="560" width="140" height="60" as="geometry" />
        </mxCell>
        <mxCell id="stkKRyprHIGqT4UZeSZB-240" value="" style="edgeStyle=elbowEdgeStyle;elbow=horizontal;rounded=0;fontColor=#000000;endArrow=none;endFill=0;strokeWidth=8;strokeColor=#23445D;" parent="1" target="25" edge="1">
          <mxGeometry width="100" height="100" relative="1" as="geometry">
            <mxPoint x="229.33666666666673" y="300" as="sourcePoint" />
            <mxPoint x="229.67" y="570" as="targetPoint" />
            <Array as="points" />
          </mxGeometry>
        </mxCell>
        <mxCell id="25" value="Proje Fikrine Karar Verilmesi" style="whiteSpace=wrap;rounded=1;fillColor=#999999;strokeColor=none;shadow=1;fontColor=#FFFFFF;fontStyle=0" parent="1" vertex="1">
          <mxGeometry x="160" y="480" width="140" height="60" as="geometry" />
        </mxCell>
        <mxCell id="24" value="Proje Fikri ve Alternatiflerin Belirlenmesi" style="whiteSpace=wrap;rounded=1;fillColor=#999999;strokeColor=none;shadow=1;fontColor=#FFFFFF;fontStyle=0" parent="1" vertex="1">
          <mxGeometry x="160" y="400" width="140" height="60" as="geometry" />
        </mxCell>
        <mxCell id="23" value="Proje Ekibi Oluşturma" style="whiteSpace=wrap;rounded=1;fillColor=#999999;strokeColor=none;shadow=1;fontColor=#FFFFFF;fontStyle=0" parent="1" vertex="1">
          <mxGeometry x="160" y="320" width="140" height="60" as="geometry" />
        </mxCell>
        <mxCell id="stkKRyprHIGqT4UZeSZB-243" value="Planlama Aşaması" style="whiteSpace=wrap;rounded=1;fillColor=#76608a;strokeColor=#432D57;shadow=1;fontColor=#ffffff;fontStyle=1;fontSize=14" parent="1" vertex="1">
          <mxGeometry x="560" y="240" width="160" height="60" as="geometry" />
        </mxCell>
        <mxCell id="stkKRyprHIGqT4UZeSZB-245" value="" style="edgeStyle=elbowEdgeStyle;elbow=horizontal;rounded=0;fontColor=#000000;endArrow=none;endFill=0;strokeWidth=8;strokeColor=#23445D;" parent="1" target="stkKRyprHIGqT4UZeSZB-256" edge="1">
          <mxGeometry width="100" height="100" relative="1" as="geometry">
            <mxPoint x="640" y="360" as="sourcePoint" />
            <mxPoint x="520" y="380" as="targetPoint" />
            <Array as="points">
              <mxPoint x="640" y="370" />
            </Array>
          </mxGeometry>
        </mxCell>
        <mxCell id="stkKRyprHIGqT4UZeSZB-246" value="" style="edgeStyle=elbowEdgeStyle;elbow=horizontal;rounded=0;fontColor=#000000;endArrow=none;endFill=0;strokeWidth=8;strokeColor=#23445D;" parent="1" target="stkKRyprHIGqT4UZeSZB-255" edge="1">
          <mxGeometry width="100" height="100" relative="1" as="geometry">
            <mxPoint x="640" y="360" as="sourcePoint" />
            <mxPoint x="490" y="440" as="targetPoint" />
            <Array as="points">
              <mxPoint x="640" y="390" />
              <mxPoint x="460" y="400" />
            </Array>
          </mxGeometry>
        </mxCell>
        <mxCell id="stkKRyprHIGqT4UZeSZB-247" value="" style="edgeStyle=elbowEdgeStyle;elbow=horizontal;rounded=0;fontColor=#000000;endArrow=none;endFill=0;strokeWidth=8;strokeColor=#23445D;" parent="1" source="stkKRyprHIGqT4UZeSZB-252" edge="1">
          <mxGeometry width="100" height="100" relative="1" as="geometry">
            <mxPoint x="490" y="340" as="sourcePoint" />
            <mxPoint x="640" y="640" as="targetPoint" />
            <Array as="points">
              <mxPoint x="640" y="410" />
              <mxPoint x="460" y="540" />
            </Array>
          </mxGeometry>
        </mxCell>
        <mxCell id="stkKRyprHIGqT4UZeSZB-248" value="" style="edgeStyle=elbowEdgeStyle;elbow=horizontal;rounded=0;fontColor=#000000;endArrow=none;endFill=0;strokeWidth=8;strokeColor=#23445D;" parent="1" target="stkKRyprHIGqT4UZeSZB-252" edge="1">
          <mxGeometry width="100" height="100" relative="1" as="geometry">
            <mxPoint x="640" y="360" as="sourcePoint" />
            <mxPoint x="510" y="460" as="targetPoint" />
            <Array as="points">
              <mxPoint x="640" y="420" />
              <mxPoint x="460" y="410" />
            </Array>
          </mxGeometry>
        </mxCell>
        <mxCell id="stkKRyprHIGqT4UZeSZB-249" value="" style="edgeStyle=elbowEdgeStyle;elbow=horizontal;rounded=0;fontColor=#000000;endArrow=none;endFill=0;strokeWidth=8;strokeColor=#23445D;" parent="1" source="stkKRyprHIGqT4UZeSZB-256" target="stkKRyprHIGqT4UZeSZB-254" edge="1">
          <mxGeometry width="100" height="100" relative="1" as="geometry">
            <mxPoint x="520" y="370" as="sourcePoint" />
            <mxPoint x="520" y="470" as="targetPoint" />
            <Array as="points">
              <mxPoint x="640" y="420" />
              <mxPoint x="650" y="460" />
            </Array>
          </mxGeometry>
        </mxCell>
        <mxCell id="stkKRyprHIGqT4UZeSZB-250" value="" style="edgeStyle=elbowEdgeStyle;elbow=horizontal;rounded=0;fontColor=#000000;endArrow=none;endFill=0;strokeWidth=8;strokeColor=#23445D;" parent="1" target="stkKRyprHIGqT4UZeSZB-256" edge="1">
          <mxGeometry width="100" height="100" relative="1" as="geometry">
            <mxPoint x="640.6666666666667" y="360" as="sourcePoint" />
            <mxPoint x="600" y="590" as="targetPoint" />
            <Array as="points" />
          </mxGeometry>
        </mxCell>
        <mxCell id="stkKRyprHIGqT4UZeSZB-251" value="" style="edgeStyle=elbowEdgeStyle;elbow=horizontal;rounded=0;fontColor=#000000;endArrow=none;endFill=0;strokeWidth=8;strokeColor=#23445D;" parent="1" source="stkKRyprHIGqT4UZeSZB-254" edge="1">
          <mxGeometry width="100" height="100" relative="1" as="geometry">
            <mxPoint x="639.3366666666667" y="300" as="sourcePoint" />
            <mxPoint x="639.67" y="570" as="targetPoint" />
            <Array as="points">
              <mxPoint x="639.67" y="320" />
              <mxPoint x="639.67" y="240" />
            </Array>
          </mxGeometry>
        </mxCell>
        <mxCell id="stkKRyprHIGqT4UZeSZB-252" value="İş Kırılım Yapısının Görselleştirilmesi" style="whiteSpace=wrap;rounded=1;fillColor=#999999;strokeColor=none;shadow=1;fontColor=#FFFFFF;fontStyle=0" parent="1" vertex="1">
          <mxGeometry x="570" y="560" width="140" height="60" as="geometry" />
        </mxCell>
        <mxCell id="stkKRyprHIGqT4UZeSZB-253" value="" style="edgeStyle=elbowEdgeStyle;elbow=horizontal;rounded=0;fontColor=#000000;endArrow=none;endFill=0;strokeWidth=8;strokeColor=#23445D;" parent="1" target="stkKRyprHIGqT4UZeSZB-254" edge="1">
          <mxGeometry width="100" height="100" relative="1" as="geometry">
            <mxPoint x="639.3366666666667" y="300" as="sourcePoint" />
            <mxPoint x="639.67" y="570" as="targetPoint" />
            <Array as="points" />
          </mxGeometry>
        </mxCell>
        <mxCell id="stkKRyprHIGqT4UZeSZB-254" value="Görev Dağılımının Yapılması" style="whiteSpace=wrap;rounded=1;fillColor=#999999;strokeColor=none;shadow=1;fontColor=#FFFFFF;fontStyle=0" parent="1" vertex="1">
          <mxGeometry x="570" y="480" width="140" height="60" as="geometry" />
        </mxCell>
        <mxCell id="stkKRyprHIGqT4UZeSZB-255" value="İş Paketlerinin Belirlenmesi" style="whiteSpace=wrap;rounded=1;fillColor=#999999;strokeColor=none;shadow=1;fontColor=#FFFFFF;fontStyle=0" parent="1" vertex="1">
          <mxGeometry x="570" y="400" width="140" height="60" as="geometry" />
        </mxCell>
        <mxCell id="stkKRyprHIGqT4UZeSZB-256" value="Fizibilite Çalışması" style="whiteSpace=wrap;rounded=1;fillColor=#999999;strokeColor=none;shadow=1;fontColor=#FFFFFF;fontStyle=0" parent="1" vertex="1">
          <mxGeometry x="570" y="320" width="140" height="60" as="geometry" />
        </mxCell>
        <mxCell id="stkKRyprHIGqT4UZeSZB-258" value="" style="edgeStyle=elbowEdgeStyle;elbow=horizontal;rounded=0;fontColor=#000000;endArrow=none;endFill=0;strokeWidth=8;strokeColor=#23445D;" parent="1" edge="1">
          <mxGeometry width="100" height="100" relative="1" as="geometry">
            <mxPoint x="639.71" y="670" as="sourcePoint" />
            <mxPoint x="639.71" y="750" as="targetPoint" />
            <Array as="points">
              <mxPoint x="640" y="700" />
            </Array>
          </mxGeometry>
        </mxCell>
        <mxCell id="stkKRyprHIGqT4UZeSZB-260" value="" style="edgeStyle=orthogonalEdgeStyle;rounded=0;orthogonalLoop=1;jettySize=auto;html=1;" parent="1" edge="1">
          <mxGeometry relative="1" as="geometry">
            <mxPoint x="640" y="720" as="sourcePoint" />
            <mxPoint x="640" y="700" as="targetPoint" />
          </mxGeometry>
        </mxCell>
        <mxCell id="stkKRyprHIGqT4UZeSZB-259" value="Çizelgeleme" style="whiteSpace=wrap;rounded=1;fillColor=#999999;strokeColor=none;shadow=1;fontColor=#FFFFFF;fontStyle=0" parent="1" vertex="1">
          <mxGeometry x="570" y="640" width="140" height="60" as="geometry" />
        </mxCell>
        <mxCell id="stkKRyprHIGqT4UZeSZB-263" value="Analiz Aşaması" style="whiteSpace=wrap;rounded=1;fillColor=#76608a;strokeColor=#432D57;shadow=1;fontStyle=1;fontSize=14;fontColor=#ffffff;" parent="1" vertex="1">
          <mxGeometry x="900" y="240" width="160" height="60" as="geometry" />
        </mxCell>
        <mxCell id="stkKRyprHIGqT4UZeSZB-265" value="" style="edgeStyle=elbowEdgeStyle;elbow=horizontal;rounded=0;fontColor=#000000;endArrow=none;endFill=0;strokeWidth=8;strokeColor=#23445D;" parent="1" target="stkKRyprHIGqT4UZeSZB-276" edge="1">
          <mxGeometry width="100" height="100" relative="1" as="geometry">
            <mxPoint x="980" y="360" as="sourcePoint" />
            <mxPoint x="860" y="380" as="targetPoint" />
            <Array as="points">
              <mxPoint x="980" y="370" />
            </Array>
          </mxGeometry>
        </mxCell>
        <mxCell id="stkKRyprHIGqT4UZeSZB-266" value="" style="edgeStyle=elbowEdgeStyle;elbow=horizontal;rounded=0;fontColor=#000000;endArrow=none;endFill=0;strokeWidth=8;strokeColor=#23445D;" parent="1" target="stkKRyprHIGqT4UZeSZB-275" edge="1">
          <mxGeometry width="100" height="100" relative="1" as="geometry">
            <mxPoint x="980" y="360" as="sourcePoint" />
            <mxPoint x="830" y="440" as="targetPoint" />
            <Array as="points">
              <mxPoint x="980" y="390" />
              <mxPoint x="800" y="400" />
            </Array>
          </mxGeometry>
        </mxCell>
        <mxCell id="stkKRyprHIGqT4UZeSZB-268" value="" style="edgeStyle=elbowEdgeStyle;elbow=horizontal;rounded=0;fontColor=#000000;endArrow=none;endFill=0;strokeWidth=8;strokeColor=#23445D;" parent="1" target="stkKRyprHIGqT4UZeSZB-272" edge="1">
          <mxGeometry width="100" height="100" relative="1" as="geometry">
            <mxPoint x="980" y="360" as="sourcePoint" />
            <mxPoint x="850" y="460" as="targetPoint" />
            <Array as="points">
              <mxPoint x="980" y="420" />
              <mxPoint x="800" y="410" />
            </Array>
          </mxGeometry>
        </mxCell>
        <mxCell id="stkKRyprHIGqT4UZeSZB-269" value="" style="edgeStyle=elbowEdgeStyle;elbow=horizontal;rounded=0;fontColor=#000000;endArrow=none;endFill=0;strokeWidth=8;strokeColor=#23445D;" parent="1" source="stkKRyprHIGqT4UZeSZB-276" target="stkKRyprHIGqT4UZeSZB-274" edge="1">
          <mxGeometry width="100" height="100" relative="1" as="geometry">
            <mxPoint x="860" y="370" as="sourcePoint" />
            <mxPoint x="860" y="470" as="targetPoint" />
            <Array as="points">
              <mxPoint x="980" y="420" />
              <mxPoint x="990" y="460" />
            </Array>
          </mxGeometry>
        </mxCell>
        <mxCell id="stkKRyprHIGqT4UZeSZB-270" value="" style="edgeStyle=elbowEdgeStyle;elbow=horizontal;rounded=0;fontColor=#000000;endArrow=none;endFill=0;strokeWidth=8;strokeColor=#23445D;" parent="1" target="stkKRyprHIGqT4UZeSZB-276" edge="1">
          <mxGeometry width="100" height="100" relative="1" as="geometry">
            <mxPoint x="980.6666666666667" y="360" as="sourcePoint" />
            <mxPoint x="940" y="590" as="targetPoint" />
            <Array as="points" />
          </mxGeometry>
        </mxCell>
        <mxCell id="stkKRyprHIGqT4UZeSZB-271" value="" style="edgeStyle=elbowEdgeStyle;elbow=horizontal;rounded=0;fontColor=#000000;endArrow=none;endFill=0;strokeWidth=8;strokeColor=#23445D;" parent="1" source="stkKRyprHIGqT4UZeSZB-274" edge="1">
          <mxGeometry width="100" height="100" relative="1" as="geometry">
            <mxPoint x="979.3366666666667" y="300" as="sourcePoint" />
            <mxPoint x="979.67" y="570" as="targetPoint" />
            <Array as="points">
              <mxPoint x="979.67" y="320" />
              <mxPoint x="979.67" y="240" />
            </Array>
          </mxGeometry>
        </mxCell>
        <mxCell id="stkKRyprHIGqT4UZeSZB-272" value="Mantık Modelleme" style="whiteSpace=wrap;rounded=1;fillColor=#999999;strokeColor=none;shadow=1;fontColor=#FFFFFF;fontStyle=0" parent="1" vertex="1">
          <mxGeometry x="910" y="560" width="140" height="60" as="geometry" />
        </mxCell>
        <mxCell id="stkKRyprHIGqT4UZeSZB-273" value="" style="edgeStyle=elbowEdgeStyle;elbow=horizontal;rounded=0;fontColor=#000000;endArrow=none;endFill=0;strokeWidth=8;strokeColor=#23445D;" parent="1" target="stkKRyprHIGqT4UZeSZB-274" edge="1">
          <mxGeometry width="100" height="100" relative="1" as="geometry">
            <mxPoint x="979.3366666666667" y="300" as="sourcePoint" />
            <mxPoint x="979.67" y="570" as="targetPoint" />
            <Array as="points" />
          </mxGeometry>
        </mxCell>
        <mxCell id="stkKRyprHIGqT4UZeSZB-274" value="Veri Modelleme" style="whiteSpace=wrap;rounded=1;fillColor=#999999;strokeColor=none;shadow=1;fontColor=#FFFFFF;fontStyle=0" parent="1" vertex="1">
          <mxGeometry x="910" y="480" width="140" height="60" as="geometry" />
        </mxCell>
        <mxCell id="stkKRyprHIGqT4UZeSZB-275" value="Süreç Modelleme" style="whiteSpace=wrap;rounded=1;fillColor=#999999;strokeColor=none;shadow=1;fontColor=#FFFFFF;fontStyle=0" parent="1" vertex="1">
          <mxGeometry x="910" y="400" width="140" height="60" as="geometry" />
        </mxCell>
        <mxCell id="stkKRyprHIGqT4UZeSZB-276" value="Gereksinim Analizi" style="whiteSpace=wrap;rounded=1;fillColor=#999999;strokeColor=none;shadow=1;fontColor=#FFFFFF;fontStyle=0" parent="1" vertex="1">
          <mxGeometry x="910" y="320" width="140" height="60" as="geometry" />
        </mxCell>
        <mxCell id="stkKRyprHIGqT4UZeSZB-277" value="Tasarım Aşaması" style="whiteSpace=wrap;rounded=1;fillColor=#76608a;strokeColor=#432D57;shadow=1;fontColor=#ffffff;fontStyle=1;fontSize=14" parent="1" vertex="1">
          <mxGeometry x="1260" y="240" width="160" height="60" as="geometry" />
        </mxCell>
        <mxCell id="stkKRyprHIGqT4UZeSZB-278" value="" style="edgeStyle=elbowEdgeStyle;elbow=horizontal;rounded=0;fontColor=#000000;endArrow=none;endFill=0;strokeWidth=8;strokeColor=#23445D;" parent="1" target="stkKRyprHIGqT4UZeSZB-288" edge="1">
          <mxGeometry width="100" height="100" relative="1" as="geometry">
            <mxPoint x="1340" y="360" as="sourcePoint" />
            <mxPoint x="1220" y="380" as="targetPoint" />
            <Array as="points">
              <mxPoint x="1340" y="370" />
            </Array>
          </mxGeometry>
        </mxCell>
        <mxCell id="stkKRyprHIGqT4UZeSZB-279" value="" style="edgeStyle=elbowEdgeStyle;elbow=horizontal;rounded=0;fontColor=#000000;endArrow=none;endFill=0;strokeWidth=8;strokeColor=#23445D;" parent="1" target="stkKRyprHIGqT4UZeSZB-287" edge="1">
          <mxGeometry width="100" height="100" relative="1" as="geometry">
            <mxPoint x="1340" y="360" as="sourcePoint" />
            <mxPoint x="1190" y="440" as="targetPoint" />
            <Array as="points">
              <mxPoint x="1340" y="390" />
              <mxPoint x="1160" y="400" />
            </Array>
          </mxGeometry>
        </mxCell>
        <mxCell id="stkKRyprHIGqT4UZeSZB-281" value="" style="edgeStyle=elbowEdgeStyle;elbow=horizontal;rounded=0;fontColor=#000000;endArrow=none;endFill=0;strokeWidth=8;strokeColor=#23445D;" parent="1" source="stkKRyprHIGqT4UZeSZB-288" target="stkKRyprHIGqT4UZeSZB-286" edge="1">
          <mxGeometry width="100" height="100" relative="1" as="geometry">
            <mxPoint x="1220" y="370" as="sourcePoint" />
            <mxPoint x="1220" y="470" as="targetPoint" />
            <Array as="points">
              <mxPoint x="1340" y="420" />
              <mxPoint x="1350" y="460" />
            </Array>
          </mxGeometry>
        </mxCell>
        <mxCell id="stkKRyprHIGqT4UZeSZB-282" value="" style="edgeStyle=elbowEdgeStyle;elbow=horizontal;rounded=0;fontColor=#000000;endArrow=none;endFill=0;strokeWidth=8;strokeColor=#23445D;" parent="1" target="stkKRyprHIGqT4UZeSZB-288" edge="1">
          <mxGeometry width="100" height="100" relative="1" as="geometry">
            <mxPoint x="1340.6666666666667" y="360" as="sourcePoint" />
            <mxPoint x="1300" y="590" as="targetPoint" />
            <Array as="points" />
          </mxGeometry>
        </mxCell>
        <mxCell id="stkKRyprHIGqT4UZeSZB-285" value="" style="edgeStyle=elbowEdgeStyle;elbow=horizontal;rounded=0;fontColor=#000000;endArrow=none;endFill=0;strokeWidth=8;strokeColor=#23445D;" parent="1" target="stkKRyprHIGqT4UZeSZB-286" edge="1">
          <mxGeometry width="100" height="100" relative="1" as="geometry">
            <mxPoint x="1339.3366666666666" y="300" as="sourcePoint" />
            <mxPoint x="1339.67" y="570" as="targetPoint" />
            <Array as="points" />
          </mxGeometry>
        </mxCell>
        <mxCell id="stkKRyprHIGqT4UZeSZB-286" value="İnsan Bilgisayar Etkileşimi" style="whiteSpace=wrap;rounded=1;fillColor=#999999;strokeColor=none;shadow=1;fontColor=#FFFFFF;fontStyle=0" parent="1" vertex="1">
          <mxGeometry x="1270" y="400" width="140" height="60" as="geometry" />
        </mxCell>
        <mxCell id="stkKRyprHIGqT4UZeSZB-287" value="Veri Tabanı Tasarımı" style="whiteSpace=wrap;rounded=1;fillColor=#999999;strokeColor=none;shadow=1;fontColor=#FFFFFF;fontStyle=0" parent="1" vertex="1">
          <mxGeometry x="1270" y="490" width="140" height="60" as="geometry" />
        </mxCell>
        <mxCell id="stkKRyprHIGqT4UZeSZB-288" value="Mimari Tasarım" style="whiteSpace=wrap;rounded=1;fillColor=#999999;strokeColor=none;shadow=1;fontColor=#FFFFFF;fontStyle=0" parent="1" vertex="1">
          <mxGeometry x="1270" y="320" width="140" height="60" as="geometry" />
        </mxCell>
        <mxCell id="stkKRyprHIGqT4UZeSZB-289" value="Uygulama Aşaması" style="whiteSpace=wrap;rounded=1;fillColor=#76608a;strokeColor=#432D57;shadow=1;fontColor=#ffffff;fontStyle=1;fontSize=14" parent="1" vertex="1">
          <mxGeometry x="1630" y="240" width="160" height="60" as="geometry" />
        </mxCell>
        <mxCell id="stkKRyprHIGqT4UZeSZB-290" value="" style="edgeStyle=elbowEdgeStyle;elbow=horizontal;rounded=0;fontColor=#000000;endArrow=none;endFill=0;strokeWidth=8;strokeColor=#23445D;" parent="1" target="stkKRyprHIGqT4UZeSZB-297" edge="1">
          <mxGeometry width="100" height="100" relative="1" as="geometry">
            <mxPoint x="1710" y="360" as="sourcePoint" />
            <mxPoint x="1590" y="380" as="targetPoint" />
            <Array as="points">
              <mxPoint x="1710" y="370" />
            </Array>
          </mxGeometry>
        </mxCell>
        <mxCell id="stkKRyprHIGqT4UZeSZB-291" value="" style="edgeStyle=elbowEdgeStyle;elbow=horizontal;rounded=0;fontColor=#000000;endArrow=none;endFill=0;strokeWidth=8;strokeColor=#23445D;" parent="1" target="stkKRyprHIGqT4UZeSZB-296" edge="1">
          <mxGeometry width="100" height="100" relative="1" as="geometry">
            <mxPoint x="1710" y="360" as="sourcePoint" />
            <mxPoint x="1560" y="440" as="targetPoint" />
            <Array as="points">
              <mxPoint x="1710" y="390" />
              <mxPoint x="1530" y="400" />
            </Array>
          </mxGeometry>
        </mxCell>
        <mxCell id="stkKRyprHIGqT4UZeSZB-292" value="" style="edgeStyle=elbowEdgeStyle;elbow=horizontal;rounded=0;fontColor=#000000;endArrow=none;endFill=0;strokeWidth=8;strokeColor=#23445D;" parent="1" source="stkKRyprHIGqT4UZeSZB-297" target="stkKRyprHIGqT4UZeSZB-295" edge="1">
          <mxGeometry width="100" height="100" relative="1" as="geometry">
            <mxPoint x="1590" y="370" as="sourcePoint" />
            <mxPoint x="1590" y="470" as="targetPoint" />
            <Array as="points">
              <mxPoint x="1710" y="420" />
              <mxPoint x="1720" y="460" />
            </Array>
          </mxGeometry>
        </mxCell>
        <mxCell id="stkKRyprHIGqT4UZeSZB-293" value="" style="edgeStyle=elbowEdgeStyle;elbow=horizontal;rounded=0;fontColor=#000000;endArrow=none;endFill=0;strokeWidth=8;strokeColor=#23445D;" parent="1" target="stkKRyprHIGqT4UZeSZB-297" edge="1">
          <mxGeometry width="100" height="100" relative="1" as="geometry">
            <mxPoint x="1710.6666666666667" y="360" as="sourcePoint" />
            <mxPoint x="1670" y="590" as="targetPoint" />
            <Array as="points" />
          </mxGeometry>
        </mxCell>
        <mxCell id="stkKRyprHIGqT4UZeSZB-294" value="" style="edgeStyle=elbowEdgeStyle;elbow=horizontal;rounded=0;fontColor=#000000;endArrow=none;endFill=0;strokeWidth=8;strokeColor=#23445D;" parent="1" target="stkKRyprHIGqT4UZeSZB-295" edge="1">
          <mxGeometry width="100" height="100" relative="1" as="geometry">
            <mxPoint x="1709.3366666666666" y="300" as="sourcePoint" />
            <mxPoint x="1709.67" y="570" as="targetPoint" />
            <Array as="points" />
          </mxGeometry>
        </mxCell>
        <mxCell id="stkKRyprHIGqT4UZeSZB-295" value="Bakım Süreçlerinin Planlanması ve Uygulanması" style="whiteSpace=wrap;rounded=1;fillColor=#999999;strokeColor=none;shadow=1;fontColor=#FFFFFF;fontStyle=0" parent="1" vertex="1">
          <mxGeometry x="1640" y="480" width="140" height="60" as="geometry" />
        </mxCell>
        <mxCell id="stkKRyprHIGqT4UZeSZB-296" value="Testlerin Gerçekleştirilmesi" style="whiteSpace=wrap;rounded=1;fillColor=#999999;strokeColor=none;shadow=1;fontColor=#FFFFFF;fontStyle=0" parent="1" vertex="1">
          <mxGeometry x="1640" y="400" width="140" height="60" as="geometry" />
        </mxCell>
        <mxCell id="stkKRyprHIGqT4UZeSZB-297" value="Yazılım Geliştirme" style="whiteSpace=wrap;rounded=1;fillColor=#999999;strokeColor=none;shadow=1;fontColor=#FFFFFF;fontStyle=0" parent="1" vertex="1">
          <mxGeometry x="1640" y="320" width="140" height="60" as="geometry" />
        </mxCell>
        <mxCell id="stkKRyprHIGqT4UZeSZB-298" value="Sonlandırma Aşaması" style="whiteSpace=wrap;rounded=1;fillColor=#76608a;strokeColor=#432D57;shadow=1;fontColor=#ffffff;fontStyle=1;fontSize=14" parent="1" vertex="1">
          <mxGeometry x="1920" y="240" width="160" height="60" as="geometry" />
        </mxCell>
        <mxCell id="stkKRyprHIGqT4UZeSZB-299" value="" style="edgeStyle=elbowEdgeStyle;elbow=horizontal;rounded=0;fontColor=#000000;endArrow=none;endFill=0;strokeWidth=8;strokeColor=#23445D;" parent="1" target="stkKRyprHIGqT4UZeSZB-306" edge="1">
          <mxGeometry width="100" height="100" relative="1" as="geometry">
            <mxPoint x="2000" y="360" as="sourcePoint" />
            <mxPoint x="1880" y="380" as="targetPoint" />
            <Array as="points">
              <mxPoint x="2000" y="370" />
            </Array>
          </mxGeometry>
        </mxCell>
        <mxCell id="stkKRyprHIGqT4UZeSZB-300" value="" style="edgeStyle=elbowEdgeStyle;elbow=horizontal;rounded=0;fontColor=#000000;endArrow=none;endFill=0;strokeWidth=8;strokeColor=#23445D;" parent="1" edge="1">
          <mxGeometry width="100" height="100" relative="1" as="geometry">
            <mxPoint x="1999.33" y="300" as="sourcePoint" />
            <mxPoint x="1999.33" y="340" as="targetPoint" />
            <Array as="points">
              <mxPoint x="1999.33" y="330" />
              <mxPoint x="1819.33" y="340" />
            </Array>
          </mxGeometry>
        </mxCell>
        <mxCell id="stkKRyprHIGqT4UZeSZB-302" value="" style="edgeStyle=elbowEdgeStyle;elbow=horizontal;rounded=0;fontColor=#000000;endArrow=none;endFill=0;strokeWidth=8;strokeColor=#23445D;" parent="1" target="stkKRyprHIGqT4UZeSZB-306" edge="1">
          <mxGeometry width="100" height="100" relative="1" as="geometry">
            <mxPoint x="2000.6666666666667" y="360" as="sourcePoint" />
            <mxPoint x="1960" y="590" as="targetPoint" />
            <Array as="points" />
          </mxGeometry>
        </mxCell>
        <mxCell id="stkKRyprHIGqT4UZeSZB-306" value="Dokümantasyonun Tamamlanması" style="whiteSpace=wrap;rounded=1;fillColor=#999999;strokeColor=none;shadow=1;fontColor=#FFFFFF;fontStyle=0" parent="1" vertex="1">
          <mxGeometry x="1930" y="320" width="140" height="60" as="geometry" />
        </mxCell>
        <mxCell id="4NYIKaNKcXJ1CrZGx-25-235" value="" style="edgeStyle=elbowEdgeStyle;elbow=horizontal;rounded=0;fontColor=#000000;endArrow=none;endFill=0;strokeWidth=8;strokeColor=#23445D;" parent="1" target="4NYIKaNKcXJ1CrZGx-25-234" edge="1">
          <mxGeometry width="100" height="100" relative="1" as="geometry">
            <mxPoint x="639.71" y="740" as="sourcePoint" />
            <mxPoint x="639.71" y="820" as="targetPoint" />
            <Array as="points" />
          </mxGeometry>
        </mxCell>
        <mxCell id="4NYIKaNKcXJ1CrZGx-25-234" value="Risk Analizi" style="whiteSpace=wrap;rounded=1;fillColor=#999999;strokeColor=none;shadow=1;fontColor=#FFFFFF;fontStyle=0" parent="1" vertex="1">
          <mxGeometry x="570" y="720" width="140" height="60" as="geometry" />
        </mxCell>
        <mxCell id="4NYIKaNKcXJ1CrZGx-25-237" value="" style="edgeStyle=elbowEdgeStyle;elbow=horizontal;rounded=0;fontColor=#000000;endArrow=none;endFill=0;strokeWidth=8;strokeColor=#23445D;" parent="1" edge="1">
          <mxGeometry width="100" height="100" relative="1" as="geometry">
            <mxPoint x="1999.5" y="380" as="sourcePoint" />
            <mxPoint x="1999.5" y="420" as="targetPoint" />
            <Array as="points">
              <mxPoint x="1999.5" y="410" />
              <mxPoint x="1819.5" y="420" />
            </Array>
          </mxGeometry>
        </mxCell>
        <mxCell id="4NYIKaNKcXJ1CrZGx-25-236" value="Teslim ve Kapanış Raporlarının Hazırlanması" style="whiteSpace=wrap;rounded=1;fillColor=#999999;strokeColor=none;shadow=1;fontColor=#FFFFFF;fontStyle=0" parent="1" vertex="1">
          <mxGeometry x="1930" y="400" width="140" height="60" as="geometry" />
        </mxCell>
      </root>
    </mxGraphModel>
  </diagram>
</mxfile>
